<?xml version="1.0" encoding="utf-8"?><!-- Uploaded to: SVG Repo, www.svgrepo.com, Generator: SVG Repo Mixer Tools -->
<svg width="800px" height="800px" viewBox="0 0 400 400" fill="none" xmlns="http://www.w3.org/2000/svg">
<path d="M215.835 236.523C230.615 231.916 324.859 219.284 329.748 226.618C334.971 234.451 321.015 256.19 317.642 262.938" stroke="#000000" stroke-opacity="0.9" stroke-width="16" stroke-linecap="round" stroke-linejoin="round"/>
<path d="M200.43 255.233C193.052 270.139 138.403 369.463 140.997 374.65C184.626 369.677 267.828 372.737 277.473 363.093C283.205 357.361 284.422 345.24 289.029 338.33" stroke="#000000" stroke-opacity="0.9" stroke-width="16" stroke-linecap="round" stroke-linejoin="round"/>
<path d="M264.26 253.033C263.823 251.417 265.394 250.388 265.911 249.181" stroke="#000000" stroke-opacity="0.9" stroke-width="16" stroke-linecap="round" stroke-linejoin="round"/>
<path d="M83.7379 96.0933C118.308 -5.87526 268.629 41.5108 238.84 147.353C222.69 204.731 112.861 231.738 88.9965 140.507" stroke="#000000" stroke-opacity="0.9" stroke-width="16" stroke-linecap="round" stroke-linejoin="round"/>
<path d="M202.97 130.113C202.266 124.677 202.005 121.366 200.834 116.492" stroke="#000000" stroke-opacity="0.9" stroke-width="16" stroke-linecap="round" stroke-linejoin="round"/>
<path d="M171.583 131.136C171.322 126.558 170.176 123.198 168.959 118.776" stroke="#000000" stroke-opacity="0.9" stroke-width="16" stroke-linecap="round" stroke-linejoin="round"/>
<path d="M305.535 279.447C299.282 280.768 293.481 283.147 288.475 287.151C243.516 323.118 311.573 335.609 332.5 293.755C336.586 285.581 335.535 276.637 330.298 270.092" stroke="#000000" stroke-opacity="0.9" stroke-width="16" stroke-linecap="round" stroke-linejoin="round"/>
<path d="M88.9297 248.328C101.082 196.886 176.995 234.502 167.073 274.192C161.18 297.761 139.925 269.243 136.806 259.884" stroke="#000000" stroke-opacity="0.9" stroke-width="16" stroke-linecap="round" stroke-linejoin="round"/>
<path d="M137.356 268.919C135.606 293.004 109.681 282.343 100.485 269.469" stroke="#000000" stroke-opacity="0.9" stroke-width="16" stroke-linecap="round" stroke-linejoin="round"/>
</svg>